<svg width="44" height="68" viewBox="0 0 44 68" fill="none" xmlns="http://www.w3.org/2000/svg">
<path id="Combined Shape" fill-rule="evenodd" clip-rule="evenodd" d="M37.5681 27.2171C34.7176 23.6969 30.9169 21.207 26.6777 20.1767V17.0858C26.6777 16.399 26.4585 15.7121 26.0199 15.2828C25.5814 14.8535 25.0698 14.5101 24.485 14.5101H23.3156L23.2425 1.28788C23.2425 0.515151 22.7309 0 22.1462 0C21.4884 0 21.0498 0.601009 21.0498 1.28788L21.1229 14.5101H19.9535C19.3688 14.5101 18.7841 14.7677 18.4186 15.2828C18.0532 15.798 17.7608 16.399 17.7608 17.0858V20.0909C13.3023 21.207 9.42857 23.6969 6.43189 27.2171C2.41196 31.9393 0 38.3787 0 45.5908C0 46.3636 0.511628 46.8787 1.09635 46.8787H12.7907C13.0831 49.3686 13.9601 51.6009 15.4219 53.3181C17.103 55.2928 19.4419 56.4949 22 56.4949C24.5581 56.4949 26.897 55.2928 28.5781 53.3181C30.0399 51.6009 30.9169 49.3686 31.2093 46.8787H42.9037C43.5615 46.8787 44 46.2777 44 45.5908C44 38.4646 41.5149 31.9393 37.5681 27.2171ZM19.8809 17.1719H24.4124V19.7476H24.2662H23.9008C23.3161 19.6618 22.6583 19.6618 22.0736 19.6618C21.6837 19.6045 21.2939 19.6236 20.9041 19.6427C20.7092 19.6522 20.5143 19.6618 20.3194 19.6618C20.1732 19.6618 20.027 19.6618 19.8809 19.7476V17.1719ZM22.0742 53.8334C23.9745 53.8334 25.7286 52.9749 27.0443 51.4294C28.1406 50.2274 28.7984 48.5961 29.0908 46.8789H22.0742H15.1306C15.3499 48.6819 16.0808 50.2274 17.1041 51.4294C18.3466 52.889 20.1007 53.8334 22.0742 53.8334ZM30.258 44.2181H22.072H13.8859H2.26465C2.55701 38.2939 4.67661 32.9707 8.03874 29.107C11.1085 25.501 15.1284 23.0969 19.66 22.4959C19.7331 22.4959 19.8245 22.4745 19.9158 22.453C20.0072 22.4315 20.0985 22.4101 20.1716 22.4101C20.7563 22.3242 21.4142 22.3242 21.9989 22.3242C22.6567 22.3242 23.2414 22.3242 23.8992 22.4101C23.9723 22.4101 24.0637 22.4315 24.155 22.453C24.2464 22.4745 24.3377 22.4959 24.4108 22.4959C28.9424 23.0969 32.9623 25.501 36.0321 29.107C39.3942 33.0565 41.5138 38.2939 41.8062 44.2181H30.258ZM20.9766 59.5867C20.9766 58.8998 21.4152 58.2988 22.073 58.2988C22.7308 58.2988 23.1693 58.814 23.1693 59.5867V66.713C23.1693 67.3998 22.7308 68.0008 22.073 68.0008C21.4883 68.0008 20.9766 67.4857 20.9766 66.713V59.5867ZM32.0865 63.1906L29.0167 57.0088C28.7243 56.4078 27.9934 56.1502 27.4818 56.4937C26.9702 56.8371 26.7509 57.6957 27.0433 58.2967L30.113 64.4785C30.4054 65.0795 31.1363 65.3371 31.6479 64.9937C32.1596 64.6502 32.3788 63.7916 32.0865 63.1906ZM32.9633 51.4276L38.2257 55.0336C38.8105 55.3771 38.9566 56.2356 38.6643 56.8367C38.3719 57.5235 37.641 57.6952 37.1294 57.3518L31.8669 53.7458C31.2822 53.4023 31.136 52.5437 31.4284 51.9427C31.7208 51.2559 32.4517 51.0841 32.9633 51.4276ZM12.7174 51.9444C12.4251 51.3434 11.6942 51.0858 11.1825 51.4292L5.92007 55.0353C5.40844 55.3787 5.18917 56.2373 5.48153 56.8383C5.77389 57.4393 6.50479 57.6969 7.01642 57.3534L12.2789 53.7474C12.7905 53.3181 13.0098 52.5454 12.7174 51.9444ZM15.1302 57.0088C15.4226 56.4078 16.1535 56.1502 16.6651 56.4937C17.2498 56.8371 17.396 57.6957 17.1036 58.2967L14.0339 64.4785C13.7415 65.1654 13.0106 65.3371 12.499 64.9937C11.9143 64.6502 11.7681 63.7916 12.0604 63.1906L15.1302 57.0088Z" fill="black"/>
</svg>
