<svg width="48" height="48" viewBox="0 0 48 48" fill="none" xmlns="http://www.w3.org/2000/svg">
<path id="eqipments" fill-rule="evenodd" clip-rule="evenodd" d="M47.3701 0.622431L47.3734 0.625406C48.1435 1.39547 48.2121 2.61741 47.5326 3.46781C42.5252 9.73481 37.299 16.0428 31.908 22.3317L45.8057 36.2284C46.4696 36.8924 46.8353 37.7752 46.8353 38.7143C46.8353 39.6534 46.4696 40.5363 45.8056 41.2003L44.3148 42.6911L44.3141 42.6919L44.3134 42.6925L39.2124 47.7936C39.0751 47.9308 38.8951 47.9994 38.7152 47.9994C38.5353 47.9994 38.3553 47.9308 38.2179 47.7936C37.9433 47.519 37.9433 47.0738 38.2179 46.7992L42.8224 42.1947L41.8162 41.1886L37.2118 45.793C37.0744 45.9303 36.8944 45.9989 36.7145 45.9989C36.5346 45.9989 36.3546 45.9303 36.2173 45.793C35.9427 45.5184 35.9427 45.0733 36.2173 44.7986L40.8217 40.1942L39.8156 39.1881L35.2112 43.7925C35.0738 43.9297 34.8938 43.9984 34.7139 43.9984C34.534 43.9984 34.354 43.9297 34.2167 43.7925C33.9421 43.5179 33.9421 43.0728 34.2167 42.7981L38.8211 38.1937L37.815 37.1875L33.2105 41.792C33.0732 41.9292 32.8932 41.9978 32.7133 41.9978C32.5334 41.9978 32.3534 41.9292 32.216 41.792C31.9414 41.5174 31.9414 41.0723 32.216 40.7976L36.8205 36.1931L35.8143 35.1869L31.2098 39.7914C31.0725 39.9287 30.8925 39.9973 30.7126 39.9973C30.5327 39.9973 30.3527 39.9287 30.2153 39.7914C29.9407 39.5168 29.9407 39.0717 30.2153 38.797L34.8198 34.1925L33.8136 33.1864L29.2092 37.7908C29.0719 37.9281 28.8919 37.9967 28.7119 37.9967C28.532 37.9967 28.352 37.9281 28.2147 37.7908C27.9401 37.5162 27.9401 37.0711 28.2147 36.7964L32.8191 32.192L31.813 31.1858L27.2086 35.7903C27.0712 35.9275 26.8912 35.9962 26.7113 35.9962C26.5314 35.9962 26.3514 35.9275 26.2141 35.7903C25.9395 35.5157 25.9395 35.0706 26.2141 34.7959L30.8185 30.1914L29.8123 29.1852L25.2079 33.7897C25.0705 33.9269 24.8905 33.9955 24.7106 33.9955C24.5307 33.9955 24.3507 33.9269 24.2134 33.7897C23.9388 33.5151 23.9388 33.0699 24.2134 32.7952L28.8178 28.1908L27.7584 27.1314C25.2831 29.9699 22.7775 32.8015 20.2444 35.6203L18.8087 37.2524C19.9721 38.4412 20.6134 40.0116 20.6115 41.6756C20.6153 45.177 17.7734 48 14.2863 48H14.2788C10.0113 48 6.94085 43.8376 8.2601 39.7336C6.87598 40.1773 5.34373 40.1383 3.94498 39.5719C1.58932 38.6151 -0.00302344 36.3135 7.03065e-05 33.7078C-0.00405469 30.2498 2.80601 27.3872 6.32145 27.3872H6.33082C8.17854 27.3872 9.92698 28.1896 11.1289 29.5883C11.4968 29.8519 11.5201 30.3854 11.1907 30.6815L11.1842 30.6872C11.1804 30.6909 11.1776 30.6937 11.1739 30.6966C10.8776 30.9654 10.4103 30.9315 10.1557 30.6178C9.21729 29.46 7.82135 28.7944 6.32613 28.7934C3.58095 28.7954 1.4081 31.0175 1.40623 33.7078C1.40932 38.1392 6.79404 40.2743 9.8517 37.1454L11.9723 35.0248C12.8563 34.1417 13.3429 32.9586 13.3429 31.6939C13.3429 30.6121 12.9688 29.5658 12.2919 28.7465C12.291 28.7465 12.291 28.7455 12.291 28.7455C12.0846 28.5392 12.0054 28.0103 12.4213 27.7095C12.7198 27.4403 13.0202 27.1645 13.3166 26.8922L13.3166 26.8922L13.3166 26.8922L13.3167 26.8921L13.3167 26.8921C13.6943 26.5453 14.0657 26.2042 14.4191 25.8899C14.4191 25.8889 14.4191 25.8889 14.42 25.8889C16.5437 23.9952 18.6915 22.1039 20.8504 20.2237L19.8088 19.1821L15.2043 23.7866C15.067 23.9239 14.887 23.9925 14.7071 23.9925C14.5272 23.9925 14.3472 23.9239 14.2099 23.7866C13.9354 23.512 13.9354 23.0669 14.2099 22.7922L18.8144 18.1878L17.8081 17.1815L13.2036 21.7859C13.0664 21.9232 12.8864 21.9918 12.7065 21.9918C12.5266 21.9918 12.3466 21.9232 12.2093 21.7859C11.9347 21.5113 11.9347 21.0662 12.2093 20.7915L16.8138 16.1871L15.8075 15.1808L11.2031 19.7853C11.0659 19.9225 10.8859 19.9912 10.7059 19.9912C10.526 19.9912 10.346 19.9225 10.2088 19.7853C9.9342 19.5107 9.9342 19.0656 10.2088 18.7909L14.8132 14.1864L13.807 13.1802L9.20257 17.7847C9.06532 17.9219 8.88532 17.9905 8.70541 17.9905C8.52551 17.9905 8.34551 17.9219 8.20826 17.7847C7.93366 17.5101 7.93366 17.0649 8.20826 16.7903L12.8127 12.1858L11.8065 11.1796L7.20204 15.784C7.06479 15.9213 6.88479 15.9899 6.70488 15.9899C6.52498 15.9899 6.34498 15.9213 6.20773 15.784C5.93313 15.5094 5.93313 15.0643 6.20773 14.7896L10.8122 10.1852L9.80595 9.17897L5.20141 13.7835C5.06416 13.9207 4.88416 13.9894 4.70426 13.9894C4.52435 13.9894 4.34435 13.9207 4.2071 13.7835C3.93251 13.5089 3.93251 13.0638 4.2071 12.7891L8.81163 8.18466L7.80541 7.17844L3.20088 11.7829C3.06363 11.9201 2.88363 11.9888 2.70373 11.9888C2.52382 11.9888 2.34382 11.9201 2.20657 11.7829C1.93198 11.5083 1.93198 11.0632 2.20657 10.7885L6.81101 6.18403L5.80479 5.17781L1.20026 9.78225C0.925758 10.0568 0.480539 10.0568 0.205945 9.78225C-0.0686484 9.50766 -0.0686484 9.06253 0.205945 8.78784L6.7991 2.19459C8.16982 0.824156 10.4001 0.823969 11.7709 2.19459L25.6533 16.0767C26.8691 15.0363 28.0861 14.0016 29.302 12.9749C34.3025 8.75241 39.426 4.54397 44.5306 0.466781C44.9056 0.165938 45.3781 0 45.8608 0H45.8636C46.4221 0 46.9692 0.225469 47.3662 0.618937L47.3701 0.622431ZM7.79314 3.18905L6.79883 4.18336L21.9138 19.2985C22.802 18.528 23.6919 17.7607 24.5826 16.9955L10.7763 3.18905C9.9538 2.36667 8.61552 2.36667 7.79314 3.18905ZM44.8107 37.2234C45.2091 37.6217 45.4286 38.1514 45.4286 38.7149C45.4286 39.2783 45.2091 39.808 44.8107 40.2063L43.8163 41.2007L34.4922 31.8767L28.6836 26.0681C29.4552 25.18 30.2241 24.2913 30.9893 23.4021L44.8107 37.2234ZM19.4316 34.1325C19.4917 34.1739 19.5452 34.2108 19.5892 34.2445C35.1165 16.9397 46.4401 2.59686 46.4976 2.4957L46.0653 2.92788C42.5534 6.43853 18.8846 30.0995 18.8065 30.1885C18.5508 30.4765 18.1048 30.5069 17.8136 30.2476C17.524 29.9907 17.4968 29.5454 17.7546 29.2548C17.873 29.1214 41.8892 5.11456 45.1413 1.86373L45.1475 1.85749L45.5032 1.50195C45.2283 1.65936 30.6026 13.3441 15.3576 26.9371L15.3548 26.9408C14.962 27.2909 14.6078 27.6165 14.2397 27.955C14.0866 28.0958 13.9311 28.2387 13.7695 28.3865C14.4106 29.3652 14.75 30.5099 14.749 31.6949C14.749 33.3167 14.1152 34.8714 12.966 36.0206L10.8801 38.1065C10.8675 38.1244 10.8372 38.1563 10.7936 38.2023L10.7934 38.2025L10.7934 38.2026C10.4625 38.5518 9.36414 39.711 9.36133 41.6765C9.36133 44.411 11.578 46.5911 14.2831 46.5947C17.02 46.5928 19.2029 44.3863 19.2049 41.6765C19.2038 40.2002 18.5577 38.8138 17.3777 37.8505C17.2286 37.7296 17.134 37.5496 17.1199 37.3583C17.1049 37.1671 17.1705 36.975 17.299 36.8325C17.6369 36.4593 17.9432 36.1082 18.2744 35.7286L18.2748 35.7281C18.3959 35.5893 18.5203 35.4467 18.6508 35.2978C18.5993 35.2603 18.5496 35.2266 18.4999 35.1937C17.5493 34.5741 16.9268 33.5606 16.7927 32.4141H16.7918C16.7436 31.9973 17.0673 31.6284 17.4921 31.6284C17.8474 31.6284 18.1465 31.8948 18.1886 32.249C18.3202 33.3662 19.0263 33.8531 19.4316 34.1325ZM2.8125 33.7093C2.81231 30.6042 6.59653 29.0062 8.81437 31.2239C10.1868 32.596 10.1866 34.8229 8.81437 36.1948C8.12906 36.8799 7.22869 37.2226 6.32859 37.2226C5.42822 37.2226 4.52822 36.8801 3.84281 36.1948C3.17841 35.5305 2.8125 34.6479 2.8125 33.7093ZM6.32872 31.6035C4.44228 31.6035 3.51997 33.8852 4.83715 35.2023C5.65962 36.0246 6.99781 36.0244 7.82028 35.2023C9.13147 33.8913 8.22059 31.6036 6.32872 31.6035ZM14.2833 38.1604C12.8376 38.1604 11.5957 38.9904 11.0422 40.3268C10.486 41.6696 10.7755 43.1388 11.7976 44.1608C12.4766 44.8395 13.3512 45.1954 14.2544 45.1954C14.7106 45.1954 15.1743 45.1044 15.6234 44.9184C16.9652 44.3625 17.7989 43.1198 17.7989 41.6752C17.7988 39.7372 16.2218 38.1604 14.2833 38.1604ZM15.0853 43.6214C14.4562 43.8818 13.5235 43.8997 12.792 43.1684C12.0601 42.4366 12.0795 41.4997 12.3415 40.8669C12.6015 40.2393 13.2482 39.5686 14.2834 39.5686C15.4465 39.5686 16.3927 40.5145 16.3927 41.6772C16.3927 42.7113 15.7174 43.3596 15.0853 43.6214Z" fill="black"/>
</svg>
