<svg width="160" height="59" viewBox="0 0 160 59" fill="none" xmlns="http://www.w3.org/2000/svg">
<g id="Combined Shape" filter="url(#filter0_d_943_4354)">
<path fill-rule="evenodd" clip-rule="evenodd" d="M13.4717 0C10.3789 0 7.87166 2.5072 7.87166 5.6V41.4975C7.80346 41.8229 7.75504 42.2849 7.75504 42.9408C7.75504 45.341 6.27324 46.7237 5.34513 47.5897C5.21177 47.7142 5.08984 47.8279 4.98538 47.9325C3.44963 49.4702 0 49.5965 0 49.5965C0 49.5965 2.21573 51.2604 3.87752 51.815C5.13435 52.2345 7.02489 52.3367 7.87166 52.3616V53.075C7.87166 56.1678 10.3789 58.675 13.4717 58.675H153.582C156.675 58.675 159.182 56.1678 159.182 53.075V5.6C159.182 2.50721 156.675 0 153.582 0H13.4717Z" fill="white"/>
</g>
<defs>
<filter id="filter0_d_943_4354" x="-3" y="-1" width="165.182" height="64.6758" filterUnits="userSpaceOnUse" color-interpolation-filters="sRGB">
<feFlood flood-opacity="0" result="BackgroundImageFix"/>
<feColorMatrix in="SourceAlpha" type="matrix" values="0 0 0 0 0 0 0 0 0 0 0 0 0 0 0 0 0 0 127 0" result="hardAlpha"/>
<feOffset dy="2"/>
<feGaussianBlur stdDeviation="1.5"/>
<feColorMatrix type="matrix" values="0 0 0 0 0 0 0 0 0 0 0 0 0 0 0 0 0 0 0.0765867 0"/>
<feBlend mode="normal" in2="BackgroundImageFix" result="effect1_dropShadow_943_4354"/>
<feBlend mode="normal" in="SourceGraphic" in2="effect1_dropShadow_943_4354" result="shape"/>
</filter>
</defs>
</svg>
