<svg width="53" height="52" viewBox="0 0 53 52" fill="none" xmlns="http://www.w3.org/2000/svg">
<path id="Combined Shape" fill-rule="evenodd" clip-rule="evenodd" d="M37.3168 4.05377C33.9466 2.44801 30.247 1.61857 26.5003 1.62874C12.8247 1.62772 1.68008 12.5414 1.65627 25.9563C1.65439 26.4039 1.28439 26.7659 0.828138 26.7666H0.827103C0.607374 26.7667 0.396668 26.6809 0.241491 26.5283C0.0863141 26.3757 -0.000574721 26.1688 2.86123e-06 25.9532C0.00285209 24.196 0.185964 22.4436 0.546572 20.7223C0.898246 19.0524 1.41732 17.4207 2.09622 15.8509C7.13573 4.22051 19.9624 -2.17894 32.5115 0.676192C34.4208 1.11062 36.2745 1.75303 38.0383 2.59144C38.4498 2.78674 38.6222 3.27218 38.4234 3.676C38.2841 3.95605 37.9947 4.13406 37.677 4.13502C37.5522 4.13506 37.4291 4.10728 37.3168 4.05377ZM40.7252 5.71749C40.5103 5.76129 40.2864 5.71954 40.1029 5.60141C39.8226 5.42131 39.6806 5.09329 39.7431 4.77037C39.8055 4.44744 40.0602 4.19326 40.3882 4.1264C40.7163 4.05954 41.0531 4.19317 41.2415 4.46496C41.4299 4.73674 41.4328 5.09313 41.2489 5.36785C41.1285 5.54791 40.9401 5.67368 40.7252 5.71749ZM17.6838 24.3807C17.6518 24.377 17.6197 24.3752 17.5875 24.3752C16.2413 24.3768 14.9138 24.6842 13.709 25.2734C13.3038 25.4761 13.141 25.9614 13.3445 26.3605C13.5479 26.7596 14.0414 26.923 14.4498 26.7266C15.4099 26.257 16.4666 26.0085 17.5394 26C18.8034 26.1516 21.0279 26.6538 21.7751 27.3868C22.0985 27.704 22.6229 27.704 22.9463 27.3868C23.2697 27.0695 23.2697 26.5551 22.9463 26.2378C21.5412 24.8596 18.0745 24.426 17.6838 24.3807ZM40.8373 41.9142C40.6561 41.7924 40.4331 41.7461 40.2172 41.7856C40.0012 41.8251 39.8102 41.9472 39.686 42.1249C38.1722 44.2893 35.7175 46.4797 32.3893 48.6357C28.8189 50.9544 24.1813 50.9544 20.6109 48.6357C16.4974 45.9706 11.5938 41.8529 11.5938 37.3676V26.8124C11.5938 26.3637 11.223 26 10.7656 26C10.3083 26 9.9375 26.3637 9.9375 26.8124V37.3676C9.9375 42.5755 15.2454 47.1063 19.6982 49.9909C23.822 52.6689 29.1783 52.6689 33.3021 49.9909C36.8093 47.7194 39.4166 45.382 41.0514 43.0436C41.3101 42.6737 41.2142 42.1682 40.8373 41.9142ZM13.4935 32.2617C13.6489 32.4141 13.8595 32.4997 14.0791 32.4997C14.2988 32.4997 14.5094 32.4141 14.6647 32.2617L15.7918 31.156C16.1474 31.4071 16.5243 31.6276 16.9185 31.815L15.978 32.7376C15.7687 32.9428 15.687 33.242 15.7636 33.5223C15.8402 33.8027 16.0634 34.0217 16.3492 34.0968C16.635 34.1719 16.9399 34.0918 17.1491 33.8865L18.6769 32.3876C19.0722 32.4616 19.4737 32.4991 19.8761 32.4997C21.8193 32.4997 22.8367 31.5568 22.9461 31.4493L21.7749 30.3004L21.7844 30.2912C21.7584 30.3151 21.1337 30.8748 19.8761 30.8748C17.784 30.8748 16.3328 29.4994 16.321 29.488C16.1657 29.3356 15.9551 29.25 15.7354 29.25C15.5158 29.25 15.3051 29.3356 15.1498 29.488L13.4935 31.1128C13.3382 31.2651 13.251 31.4718 13.251 31.6873C13.251 31.9027 13.3382 32.1094 13.4935 32.2617ZM21.5322 43.0622C21.5322 44.6327 22.8812 47.1243 26.501 47.1243C30.1209 47.1243 31.4698 44.6327 31.4698 43.0622C31.4699 42.8083 31.3488 42.569 31.1427 42.4153C30.4205 41.8771 28.6327 40.625 27.6303 40.625C27.2127 40.6372 26.8128 40.7935 26.501 41.0663C26.1893 40.7935 25.7894 40.6372 25.3718 40.625C24.3694 40.625 22.5816 41.877 21.8593 42.4153C21.6532 42.569 21.5322 42.8083 21.5322 43.0622ZM25.3507 42.252C25.4499 42.2983 25.6198 42.468 25.8554 42.7571C26.0126 42.9496 26.2504 43.0617 26.5019 43.0617C26.7534 43.0617 26.9912 42.9496 27.1484 42.7571C27.3828 42.4697 27.5521 42.3001 27.6512 42.2529C27.9748 42.3071 28.8812 42.8183 29.7557 43.4301C29.5879 44.1115 28.9454 45.4989 26.5019 45.4989C24.0584 45.4989 23.4158 44.1115 23.248 43.4301C24.1289 42.8137 25.0411 42.3001 25.3507 42.252ZM0.828135 28.3925C0.370769 28.3925 0 28.7562 0 29.2049V51.1856C0 51.6343 0.370769 51.998 0.828135 51.998C1.2855 51.998 1.65627 51.6343 1.65627 51.1856V29.2049C1.65627 28.7562 1.2855 28.3925 0.828135 28.3925ZM52.3496 20.2524C51.512 16.6162 49.8839 13.2003 47.5764 10.2384C46.4429 8.78184 45.1563 7.44621 43.738 6.25357C43.3905 5.96235 42.8683 6.00186 42.5704 6.34192C42.2728 6.68264 42.3131 7.19549 42.6604 7.48742C48.1726 12.1172 51.3449 18.8804 51.3434 25.9991V51.1838C51.3434 51.6324 51.7142 51.9962 52.1715 51.9962C52.6289 51.9962 52.9997 51.6324 52.9997 51.1838V25.9991C53.0004 24.0658 52.7824 22.1385 52.3496 20.2524ZM29.8125 21.9386C29.8125 22.3873 29.4418 22.751 28.9844 22.751C28.527 22.751 28.1562 22.3873 28.1562 21.9386V15.4394C28.1562 14.9907 28.527 14.627 28.9844 14.627C29.4418 14.627 29.8125 14.9907 29.8125 15.4394V21.9386ZM48.6233 46.3119C48.6704 46.3119 48.7175 46.308 48.764 46.3003C48.9805 46.2639 49.1734 46.1447 49.3003 45.9689C49.4272 45.793 49.4777 45.5748 49.4407 45.3624C49.1827 43.8829 48.7248 42.4438 48.0792 41.083C47.9589 40.8128 47.6987 40.6277 47.3995 40.5995C47.1003 40.5714 46.809 40.7044 46.6384 40.9473C46.4678 41.1901 46.4448 41.5045 46.5782 41.7688C47.1618 42.9986 47.5755 44.2993 47.8086 45.6364C47.8765 46.026 48.2204 46.3112 48.6233 46.3119ZM29.9898 25.0152C30.6858 28.3391 33.2595 30.9789 36.6134 31.809C40.4933 32.7619 43.917 35.0038 46.3022 38.1535C46.4805 38.3866 46.5179 38.6956 46.4001 38.9631C46.2823 39.2307 46.0275 39.4159 45.7322 39.4484C45.437 39.4809 45.1466 39.3558 44.9713 39.1205C42.8148 36.273 39.7195 34.2462 36.2117 33.3848C32.2389 32.4011 29.1904 29.2737 28.3662 25.3363C28.3053 25.0508 28.4051 24.7552 28.6276 24.5618C28.8502 24.3684 29.1613 24.3069 29.4429 24.4006C29.7244 24.4943 29.9332 24.7289 29.9898 25.0152ZM18.2188 15.4388C18.2188 15.8875 18.5895 16.2512 19.0469 16.2512C19.5043 16.2512 19.875 15.8875 19.875 15.4388C19.8776 13.1964 21.7299 11.3793 24.0157 11.3768C24.4731 11.3768 24.8438 11.013 24.8438 10.5644C24.8438 10.1157 24.4731 9.75195 24.0157 9.75195C20.8156 9.75554 18.2224 12.2995 18.2188 15.4388ZM26.5008 23.2632C26.4944 28.7983 30.3357 33.6248 35.8111 34.9612C42.0244 36.4777 46.3833 41.9545 46.3761 48.2355V51.1851C46.3761 51.6338 46.0053 51.9975 45.5479 51.9975C45.0906 51.9975 44.7198 51.6338 44.7198 51.1851V48.2355C44.7262 42.7004 40.8849 37.8739 35.4095 36.5375C29.1962 35.021 24.8373 29.5442 24.8446 23.2632V15.4392C24.8446 14.9905 24.4738 14.6268 24.0164 14.6268C23.5591 14.6268 23.1883 14.9905 23.1883 15.4392V17.064C23.1883 18.1755 22.5976 18.9859 21.4328 19.4729C20.5573 19.8389 19.4421 20.0027 18.1509 20.1924L18.1503 20.1925C13.7537 20.8381 8.28186 21.6417 8.28186 30.8749V37.3234C8.27991 41.7568 7.10064 46.1131 4.86021 49.9633C4.63297 50.3522 4.12761 50.487 3.73089 50.2647C3.33417 50.0423 3.19602 49.5467 3.42216 49.1572C5.51972 45.5526 6.62379 41.474 6.62559 37.3234V30.8749C6.62559 26.2055 7.92286 22.9757 10.5916 21.0009C12.8534 19.3275 15.6542 18.9161 17.905 18.5855C20.4824 18.207 21.532 17.9634 21.532 17.064V15.4392C21.532 14.0931 22.6443 13.002 24.0164 13.002C25.3885 13.002 26.5008 14.0931 26.5008 15.4392V23.2632ZM49.6875 49.5605C49.6875 50.0091 49.3167 50.3729 48.8594 50.3729C48.402 50.3729 48.0312 50.0091 48.0312 49.5605C48.0312 49.1118 48.402 48.748 48.8594 48.748C49.3167 48.748 49.6875 49.1118 49.6875 49.5605ZM27.3291 11.3768C27.7865 11.3768 28.1572 11.013 28.1572 10.5644C28.1572 10.1157 27.7865 9.75195 27.3291 9.75195C26.8717 9.75195 26.501 10.1157 26.501 10.5644C26.501 11.013 26.8717 11.3768 27.3291 11.3768Z" fill="black"/>
</svg>
