<svg width="43" height="52" viewBox="0 0 43 52" fill="none" xmlns="http://www.w3.org/2000/svg">
<path id="lock" fill-rule="evenodd" clip-rule="evenodd" d="M39.93 18.6115C38.5082 17.162 36.7022 16.1619 34.7309 15.7322V13.4212C34.7309 6.0089 28.804 0 21.4927 0C14.1814 0 8.25447 6.0089 8.25447 13.4212V15.7364C4.50479 16.5696 1.50217 19.4104 0.423465 23.1453C-0.655238 26.8803 0.361839 30.9143 3.07606 33.6664L20.9187 51.7536C21.0736 51.9113 21.284 52 21.5036 52C21.7231 52 21.9335 51.9113 22.0884 51.7536L39.929 33.6664C44.0233 29.5066 44.0237 22.7718 39.93 18.6115ZM9.90967 13.4194C9.90967 6.93357 15.0958 1.67578 21.4931 1.67578C27.8905 1.67578 33.0765 6.93357 33.0765 13.4194V15.507C32.8873 15.4976 32.697 15.4913 32.5067 15.4913C32.1443 15.4917 31.7822 15.5106 31.4218 15.5479V13.4194C31.4218 7.86011 26.9766 3.35344 21.4931 3.35344C16.0097 3.35344 11.5644 7.86011 11.5644 13.4194V15.5458C11.2138 15.5102 10.8591 15.4913 10.5013 15.4913C10.3027 15.4913 10.1062 15.4976 9.90967 15.5091V13.4194ZM29.7675 15.8585V13.4217C29.7675 8.78897 26.0632 5.03341 21.4936 5.03341C16.9241 5.03341 13.2197 8.78897 13.2197 13.4217V15.8532C15.0018 16.3343 16.6261 17.2863 17.9265 18.6119L21.504 22.2388L25.0824 18.6119C26.3775 17.2916 27.9938 16.3417 29.7675 15.8585ZM38.7586 32.4817L21.5023 49.9754L4.24509 32.4817C0.807691 28.9764 0.815838 23.3122 4.2633 19.8171C7.71077 16.3219 13.2977 16.3137 16.7552 19.7986L20.0255 23.1141C18.8872 23.5523 17.9696 24.4894 17.5685 25.7094C17.0054 27.4221 17.5865 29.3079 19.011 30.391V33.7464C19.011 34.2096 19.3814 34.5852 19.8384 34.5852H23.1479C23.6049 34.5852 23.9753 34.2096 23.9753 33.7464V30.391C25.3999 29.3079 25.9809 27.4221 25.4178 25.7094C25.0184 24.4945 24.1067 23.56 22.9748 23.1196L26.2505 19.7986C28.4829 17.5213 31.7457 16.6277 34.8054 17.4556C37.8652 18.2836 40.2549 20.7067 41.071 23.8089C41.8871 26.911 41.0052 30.2189 38.7586 32.4817ZM22.7336 29.216C22.4781 29.3659 22.3207 29.6424 22.3205 29.9416V32.9069H20.6657V29.9416C20.6658 29.6422 20.5083 29.3655 20.2527 29.2155C19.2795 28.6462 18.8048 27.4852 19.0955 26.3848C19.3861 25.2845 20.3696 24.5193 21.4931 24.5193C22.6167 24.5193 23.6002 25.2845 23.8908 26.3848C24.1815 27.4852 23.7068 28.6462 22.7336 29.2155V29.216Z" fill="black"/>
</svg>
