<svg width="52" height="51" viewBox="0 0 52 51" fill="none" xmlns="http://www.w3.org/2000/svg">
<path id="tea" fill-rule="evenodd" clip-rule="evenodd" d="M22.2992 5.51273L21.7707 4.86198C20.995 3.90693 20.9939 2.57186 21.768 1.6154C22.1167 1.18449 22.0432 0.557948 21.6039 0.215987C21.1644 -0.126172 20.5257 -0.0539549 20.1769 0.376957C18.8117 2.06395 18.8137 4.41862 20.1819 6.10322L20.7103 6.75397C21.724 8.00208 21.7255 9.74675 20.714 10.9967L20.1724 11.6659C19.8237 12.0968 19.8972 12.7234 20.3366 13.0653C20.5233 13.2107 20.7461 13.2813 20.9673 13.2813C21.2665 13.2813 21.5629 13.1522 21.7635 12.9044L22.305 12.2352C23.9077 10.2548 23.9054 7.49039 22.2992 5.51273ZM42.6562 20.5692H50.9844C51.5453 20.5692 52 21.0152 52 21.5653V28.6874C52 33.9785 47.611 38.2831 42.2162 38.2831H39.3494C38.0809 40.2438 36.4881 41.9837 34.6468 43.4297H44.0781C44.639 43.4297 45.0937 43.8756 45.0937 44.4258C45.0937 48.0509 42.0868 51 38.3906 51H6.70312C3.00696 51 0 48.0509 0 44.4258C0 43.8756 0.454797 43.4297 1.01562 43.4297H8.00942C6.00895 41.8586 4.30066 39.9413 2.98411 37.7701C1.03187 34.5508 0 30.8589 0 27.0937V18.4609C0 17.9107 0.454797 17.4648 1.01562 17.4648H8.83594C9.39677 17.4648 9.85156 17.9107 9.85156 18.4609C9.85156 19.011 9.39677 19.457 8.83594 19.457H2.03125V27.0937C2.03125 33.8021 5.68313 40.0372 11.58 43.4296H31.0763C36.9731 40.0371 40.625 33.8021 40.625 27.0936V19.4569H19.7031C19.1423 19.4569 18.6875 19.0109 18.6875 18.4608C18.6875 17.9106 19.1423 17.4647 19.7031 17.4647H41.6406C42.2015 17.4647 42.6562 17.9106 42.6562 18.4608V20.5692ZM38.3906 49.0057C40.618 49.0057 42.4863 47.4689 42.9513 45.4198H31.3484H11.3079H2.14246C2.60752 47.4689 4.47576 49.0057 6.70312 49.0057H38.3906ZM42.6551 27.0926V26.5448H45.9051V28.6864C45.9051 30.682 44.2497 32.3055 42.215 32.3055H41.9844C42.4277 30.6115 42.6551 28.8602 42.6551 27.0926ZM42.2169 36.2899C46.4916 36.2899 49.9694 32.879 49.9694 28.6864V22.5604H42.6569V24.5526H46.9226C47.4834 24.5526 47.9382 24.9985 47.9382 25.5487V28.6864C47.9382 31.7805 45.3717 34.2977 42.2169 34.2977H41.3553C41.1022 34.9754 40.8126 35.6404 40.4883 36.2899H42.2169ZM27.4005 7.10037L27.9289 7.75102C29.5351 9.72887 29.5374 12.4932 27.9346 14.4736L27.3933 15.1427C27.1928 15.3904 26.8963 15.5196 26.5971 15.5196C26.3759 15.5196 26.1531 15.4491 25.9664 15.3037C25.527 14.9618 25.4535 14.3352 25.8022 13.9043L26.3437 13.2352C27.3552 11.9853 27.3537 10.2406 26.3401 8.99235L25.8117 8.3416C24.4435 6.6569 24.4415 4.30223 25.8067 2.61524C26.1555 2.18433 26.7942 2.11211 27.2337 2.45427C27.673 2.79623 27.7465 3.42277 27.3978 3.85369C26.6237 4.81014 26.6248 6.14521 27.4005 7.10037ZM16.6682 7.75101L16.1398 7.10036C15.3641 6.1453 15.3629 4.81013 16.1369 3.85368C16.4857 3.42277 16.4122 2.79622 15.9728 2.45416C15.5334 2.1121 14.8946 2.18442 14.5459 2.61513C13.1808 4.30212 13.1828 6.6569 14.5509 8.3415L15.0794 8.99225C16.093 10.2405 16.0945 11.9852 15.083 13.235L14.5415 13.9041C14.1927 14.335 14.2662 14.9616 14.7055 15.3036C14.8923 15.4489 15.1149 15.5196 15.3362 15.5196C15.6354 15.5196 15.9319 15.3905 16.1324 15.1427L16.674 14.4736C18.2767 12.4932 18.2743 9.72886 16.6682 7.75101ZM14.5449 17.4648C14.812 17.4648 15.0741 17.5714 15.263 17.7567C15.4528 17.942 15.5605 18.199 15.5605 18.4609C15.5605 18.7239 15.4528 18.9799 15.263 19.1662C15.0741 19.3515 14.812 19.457 14.5449 19.457C14.2778 19.457 14.0158 19.3515 13.8269 19.1662C13.638 18.9799 13.5293 18.7229 13.5293 18.4609C13.5293 18.199 13.6381 17.943 13.8269 17.7567C14.0158 17.5714 14.2778 17.4648 14.5449 17.4648ZM36.766 26.0977C36.2051 26.0977 35.7503 26.5436 35.7503 27.0938C35.7503 30.7912 34.2212 34.4248 31.555 37.063C31.1601 37.4537 31.1631 38.0844 31.5614 38.4717C31.7594 38.6642 32.0179 38.7603 32.2764 38.7603C32.5378 38.7602 32.7992 38.6618 32.9978 38.4653C36.038 35.4571 37.7816 31.3123 37.7816 27.0938C37.7816 26.5436 37.3268 26.0977 36.766 26.0977ZM28.4647 39.3904C28.9532 39.1202 29.5726 39.2894 29.8483 39.7686C30.1238 40.2477 29.9513 40.8553 29.4627 41.1256L29.4395 41.1384C29.2819 41.2256 29.1104 41.2671 28.9414 41.2671C28.5868 41.2671 28.2426 41.0848 28.0559 40.7602C27.7804 40.2811 27.9529 39.6736 28.4415 39.4032L28.4647 39.3904Z" fill="black"/>
</svg>
