<svg width="50" height="50" viewBox="0 0 50 50" fill="none" xmlns="http://www.w3.org/2000/svg">
<path id="Combined Shape" fill-rule="evenodd" clip-rule="evenodd" d="M2.08254 13.1477C2.38512 13.1473 2.66378 12.9835 2.81089 12.7196C2.95799 12.4558 2.95053 12.1332 2.79137 11.8764C0.612168 8.35439 1.70085 3.73684 5.22511 1.55388C5.4881 1.40172 5.64743 1.11894 5.64105 0.815656C5.63467 0.51237 5.4636 0.236512 5.19445 0.0954934C4.92529 -0.0455248 4.6006 -0.0294129 4.34679 0.137555C0.039801 2.80538 -1.29086 8.44841 1.37203 12.7528C1.52427 12.9984 1.79312 13.1479 2.08254 13.1477ZM24.9987 49.9995C31.637 49.9995 38.3572 48.2824 38.3572 45.0007V43.6044C39.3282 43.0035 39.9498 41.9727 40.027 40.8351V7.50989C39.9515 6.35278 39.3131 5.30585 38.3179 4.70724C37.9113 1.62632 31.4275 0.0117189 24.9987 0.0117189C18.57 0.0117189 12.0861 1.62632 11.6795 4.70724C10.6843 5.30585 10.0459 6.35278 9.97047 7.50989V40.8351C10.0477 41.9727 10.6692 43.0035 11.6403 43.6044V45.0007C11.6403 48.2824 18.3604 49.9995 24.9987 49.9995ZM36.6866 45.0025C36.6866 46.3613 32.133 48.335 24.998 48.335C17.8629 48.335 13.3093 46.3613 13.3093 45.0025V44.5859C16.2423 45.9514 20.6932 46.6688 24.998 46.6688C29.3027 46.6688 33.7536 45.9498 36.6866 44.5859V45.0025ZM11.6399 40.835C11.6399 42.5746 16.722 45.0007 24.9983 45.0007C33.2747 45.0007 38.3568 42.5746 38.3568 40.835V10.2792C35.6926 12.2803 30.2349 13.3418 24.9983 13.3418C19.7618 13.3418 14.3041 12.2803 11.6399 10.2792V40.835ZM24.998 1.67773C32.133 1.67773 36.6866 3.65142 36.6866 5.01025C36.6866 6.36909 32.133 8.34277 24.998 8.34277C17.8629 8.34277 13.3093 6.36909 13.3093 5.01025C13.3093 3.65142 17.8629 1.67773 24.998 1.67773ZM24.9983 10.0107C19.4387 10.0107 13.8374 8.80186 12.1592 6.48242C11.8604 6.74632 11.6745 7.11463 11.6399 7.51134C11.6399 9.25091 16.722 11.677 24.9983 11.677C33.2747 11.677 38.3568 9.25091 38.3568 7.51134C38.3222 7.11463 38.1363 6.74632 37.8375 6.48242C36.1593 8.80186 30.558 10.0107 24.9983 10.0107ZM18.3212 5.84399H19.991C20.4521 5.84399 20.8259 5.47099 20.8259 5.01086C20.8259 4.55074 20.4521 4.17773 19.991 4.17773H18.3212C17.8601 4.17773 17.4863 4.55074 17.4863 5.01086C17.4863 5.47099 17.8601 5.84399 18.3212 5.84399ZM31.68 5.84399H30.0102C29.5491 5.84399 29.1753 5.47099 29.1753 5.01086C29.1753 4.55074 29.5491 4.17773 30.0102 4.17773H31.68C32.1411 4.17773 32.5149 4.55074 32.5149 5.01086C32.5149 5.47099 32.1411 5.84399 31.68 5.84399ZM14.9813 15.0089C14.9813 15.469 14.6075 15.842 14.1464 15.842C13.6853 15.842 13.3115 15.469 13.3115 15.0089C13.3115 14.5488 13.6853 14.1758 14.1464 14.1758C14.6075 14.1758 14.9813 14.5488 14.9813 15.0089ZM18.3212 16.6762C18.7823 16.6762 19.1561 16.3032 19.1561 15.8431C19.1561 15.3829 18.7823 15.0099 18.3212 15.0099C17.8601 15.0099 17.4863 15.3829 17.4863 15.8431C17.4863 16.3032 17.8601 16.6762 18.3212 16.6762ZM16.6508 18.3411C16.6508 18.8013 16.277 19.1743 15.8159 19.1743C15.3548 19.1743 14.981 18.8013 14.981 18.3411C14.981 17.881 15.3548 17.508 15.8159 17.508C16.277 17.508 16.6508 17.881 16.6508 18.3411ZM19.9912 20.0081C20.4523 20.0081 20.8261 19.6351 20.8261 19.1749C20.8261 18.7148 20.4523 18.3418 19.9912 18.3418C19.53 18.3418 19.1562 18.7148 19.1562 19.1749C19.1562 19.6351 19.53 20.0081 19.9912 20.0081ZM35.0184 18.3411C35.0184 18.8013 34.6446 19.1743 34.1835 19.1743C33.7224 19.1743 33.3486 18.8013 33.3486 18.3411C33.3486 17.881 33.7224 17.508 34.1835 17.508C34.6446 17.508 35.0184 17.881 35.0184 18.3411ZM30.0102 20.0081C30.4713 20.0081 30.8451 19.6351 30.8451 19.1749C30.8451 18.7148 30.4713 18.3418 30.0102 18.3418C29.5491 18.3418 29.1753 18.7148 29.1753 19.1749C29.1753 19.6351 29.5491 20.0081 30.0102 20.0081ZM25.8344 19.1749C25.8344 19.6351 25.4606 20.0081 24.9995 20.0081C24.5383 20.0081 24.1646 19.6351 24.1646 19.1749C24.1646 18.7148 24.5383 18.3418 24.9995 18.3418C25.4606 18.3418 25.8344 18.7148 25.8344 19.1749ZM22.4946 17.51C22.9557 17.51 23.3295 17.137 23.3295 16.6769C23.3295 16.2168 22.9557 15.8438 22.4946 15.8438C22.0335 15.8438 21.6597 16.2168 21.6597 16.6769C21.6597 17.137 22.0335 17.51 22.4946 17.51ZM36.6879 15.0089C36.6879 15.469 36.3141 15.842 35.853 15.842C35.3919 15.842 35.0181 15.469 35.0181 15.0089C35.0181 14.5488 35.3919 14.1758 35.853 14.1758C36.3141 14.1758 36.6879 14.5488 36.6879 15.0089ZM31.6782 16.6762C32.1393 16.6762 32.5131 16.3032 32.5131 15.8431C32.5131 15.3829 32.1393 15.0099 31.6782 15.0099C31.2171 15.0099 30.8433 15.3829 30.8433 15.8431C30.8433 16.3032 31.2171 16.6762 31.6782 16.6762ZM28.3397 16.6769C28.3397 17.137 27.9659 17.51 27.5048 17.51C27.0437 17.51 26.6699 17.137 26.6699 16.6769C26.6699 16.2168 27.0437 15.8438 27.5048 15.8438C27.9659 15.8438 28.3397 16.2168 28.3397 16.6769ZM14.1464 21.6743C14.6075 21.6743 14.9813 21.3013 14.9813 20.8411C14.9813 20.381 14.6075 20.008 14.1464 20.008C13.6853 20.008 13.3115 20.381 13.3115 20.8411C13.3115 21.3013 13.6853 21.6743 14.1464 21.6743ZM19.1561 21.6749C19.1561 22.1351 18.7823 22.5081 18.3212 22.5081C17.8601 22.5081 17.4863 22.1351 17.4863 21.6749C17.4863 21.2148 17.8601 20.8418 18.3212 20.8418C18.7823 20.8418 19.1561 21.2148 19.1561 21.6749ZM22.4946 23.3401C22.9557 23.3401 23.3295 22.9671 23.3295 22.507C23.3295 22.0468 22.9557 21.6738 22.4946 21.6738C22.0335 21.6738 21.6597 22.0468 21.6597 22.507C21.6597 22.9671 22.0335 23.3401 22.4946 23.3401ZM36.6879 20.8411C36.6879 21.3013 36.3141 21.6743 35.853 21.6743C35.3919 21.6743 35.0181 21.3013 35.0181 20.8411C35.0181 20.381 35.3919 20.008 35.853 20.008C36.3141 20.008 36.6879 20.381 36.6879 20.8411ZM31.6782 22.5081C32.1393 22.5081 32.5131 22.1351 32.5131 21.6749C32.5131 21.2148 32.1393 20.8418 31.6782 20.8418C31.2171 20.8418 30.8433 21.2148 30.8433 21.6749C30.8433 22.1351 31.2171 22.5081 31.6782 22.5081ZM28.3397 22.507C28.3397 22.9671 27.9659 23.3401 27.5048 23.3401C27.0437 23.3401 26.6699 22.9671 26.6699 22.507C26.6699 22.0468 27.0437 21.6738 27.5048 21.6738C27.9659 21.6738 28.3397 22.0468 28.3397 22.507ZM29.5466 25.9801C29.8028 25.8094 30.1324 25.7934 30.4041 25.9384C30.6756 26.0835 30.845 26.3659 30.8449 26.6732V33.3383C30.8449 34.7186 29.7235 35.8376 28.3402 35.8376C26.9569 35.8376 25.8355 34.7186 25.8355 33.3383C25.8355 31.9579 26.9569 30.8389 28.3402 30.8389C28.6252 30.8416 28.9077 30.8935 29.1751 30.9922V28.0121C27.5573 28.5206 25.8488 28.6755 24.1657 28.4661V35.0045C24.1657 36.3849 23.0443 37.5039 21.661 37.5039C20.2776 37.5039 19.1562 36.3849 19.1562 35.0045C19.1562 33.6241 20.2776 32.5051 21.661 32.5051C21.946 32.5079 22.2285 32.5597 22.4959 32.6584V27.5063C22.4958 27.2569 22.6078 27.0205 22.801 26.8622C22.9942 26.704 23.2484 26.6404 23.4936 26.689C23.5353 26.6974 27.3642 27.4322 29.5466 25.9801ZM20.8257 35.005C20.8257 35.4651 21.1995 35.8381 21.6606 35.8381C22.1217 35.8381 22.4955 35.4651 22.4955 35.005C22.4955 34.5449 22.1217 34.1719 21.6606 34.1719C21.1995 34.1719 20.8257 34.5449 20.8257 35.005ZM28.3388 34.1702C27.8777 34.1702 27.5039 33.7972 27.5039 33.337C27.5039 32.8769 27.8777 32.5039 28.3388 32.5039C28.7999 32.5039 29.1737 32.8769 29.1737 33.337C29.1737 33.7972 28.7999 34.1702 28.3388 34.1702ZM6.73496 2.86808C6.95058 2.91871 7.1372 3.05277 7.25374 3.24074C7.49608 3.63188 7.375 4.14498 6.98323 4.38713C5.02498 5.59941 4.41956 8.16464 5.62986 10.1216C5.79314 10.3747 5.80682 10.6961 5.66566 10.9622C5.5245 11.2283 5.25045 11.3977 4.94883 11.4053C4.64721 11.4129 4.36495 11.2575 4.21052 10.9988C2.51581 8.25953 3.36288 4.66827 6.10408 2.97081C6.29239 2.85441 6.51934 2.81746 6.73496 2.86808ZM45.6526 0.137556C45.3988 -0.0294127 45.0741 -0.0455246 44.805 0.0954936C44.5358 0.236512 44.3648 0.51237 44.3584 0.815656C44.352 1.11894 44.5113 1.40172 44.7743 1.55388C48.2986 3.73684 49.3873 8.35439 47.2081 11.8764C46.9815 12.2664 47.1068 12.7655 47.491 13.0027C47.8752 13.2399 48.3787 13.1292 48.6274 12.7528C51.2903 8.44841 49.9596 2.80539 45.6526 0.137556ZM45.2691 11.3713C45.0534 11.4219 44.8265 11.385 44.6382 11.2686C44.2465 11.0259 44.1261 10.5122 44.3694 10.1214C45.5796 8.16445 44.9742 5.59922 43.016 4.38693C42.7568 4.23283 42.6011 3.95117 42.6087 3.65019C42.6163 3.34921 42.786 3.07575 43.0527 2.93488C43.3193 2.79402 43.6414 2.80768 43.8951 2.97061C46.636 4.66835 47.4827 8.25956 45.7878 10.9987C45.6713 11.1866 45.4847 11.3207 45.2691 11.3713ZM4.34679 49.8747C4.47825 49.9566 4.63015 49.9999 4.78512 49.9997C5.15819 49.9997 5.48605 49.7528 5.58826 49.3948C5.69047 49.0367 5.54223 48.6545 5.22511 48.4584C1.70085 46.2754 0.612168 41.6578 2.79137 38.1359C3.01797 37.7459 2.89259 37.2468 2.50843 37.0095C2.12427 36.7723 1.62069 36.883 1.37203 37.2594C-1.29086 41.5638 0.0398011 47.2069 4.34679 49.8747ZM4.73149 38.6413C4.94711 38.5907 5.17406 38.6276 5.36237 38.744C5.75406 38.9867 5.87441 39.5004 5.63121 39.8912C4.42091 41.8481 5.02633 44.4134 6.98458 45.6257C7.24378 45.7798 7.3995 46.0614 7.39189 46.3624C7.38428 46.6634 7.21453 46.9369 6.94788 47.0777C6.68122 47.2186 6.35915 47.2049 6.10543 47.042C3.36452 45.3442 2.51784 41.753 4.21271 39.0139C4.32925 38.826 4.51587 38.6919 4.73149 38.6413ZM45.215 49.9997C45.37 49.9999 45.5219 49.9566 45.6534 49.8747C49.9604 47.2069 51.291 41.5638 48.6281 37.2594C48.3795 36.883 47.8759 36.7723 47.4917 37.0095C47.1076 37.2468 46.9822 37.7459 47.2088 38.1359C49.388 41.6578 48.2993 46.2754 44.775 48.4584C44.4579 48.6545 44.3097 49.0367 44.4119 49.3948C44.5141 49.7528 44.842 49.9997 45.215 49.9997ZM43.2653 47.1449C43.0496 47.0943 42.863 46.9602 42.7465 46.7722C42.5045 46.3807 42.6263 45.8674 43.0187 45.6259C44.9763 44.413 45.581 41.8479 44.3704 39.8914C44.2071 39.6382 44.1934 39.3168 44.3346 39.0508C44.4757 38.7847 44.7498 38.6153 45.0514 38.6077C45.353 38.6001 45.6353 38.7555 45.7897 39.0141C47.4844 41.7534 46.6374 45.3447 43.8961 47.0422C43.7078 47.1586 43.4809 47.1955 43.2653 47.1449Z" fill="black"/>
</svg>
