<svg width="13" height="17" viewBox="0 0 13 17" fill="none" xmlns="http://www.w3.org/2000/svg">
<g id="Frame" clip-path="url(#clip0_433_3488)">
<path id="Vector" d="M12.9991 2.23473C12.9774 1.70244 12.6016 1.33782 12.0588 1.3254C11.8614 1.32097 11.6636 1.32407 11.4657 1.32363C11.2113 1.32363 11.2045 1.32363 11.2126 1.06635C11.2258 0.639635 11.0542 0.317156 10.6734 0.106458C10.5969 0.0638748 10.5127 0.0350424 10.4321 0H9.99164C9.90744 0.038591 9.82006 0.0714155 9.73993 0.117104C9.36779 0.329132 9.20888 0.654716 9.21567 1.06946C9.21975 1.32363 9.21612 1.32363 8.95898 1.32363C8.51938 1.32363 8.07978 1.32052 7.64019 1.32629C7.52972 1.32762 7.48898 1.29613 7.49441 1.18701C7.50165 1.03841 7.50754 0.886706 7.46815 0.7421C7.37761 0.411637 7.17117 0.180091 6.84158 0.0554468C6.79586 0.0381474 6.73791 0.0465753 6.70441 0H6.29786C6.20143 0.0421396 6.10047 0.0758513 6.00993 0.12775C5.64186 0.338004 5.49654 0.663588 5.50514 1.07123C5.51102 1.32363 5.50514 1.32363 5.24437 1.32363C4.80477 1.32363 4.36518 1.32052 3.92558 1.32584C3.81376 1.32762 3.77754 1.29391 3.78433 1.18523C3.80244 0.898682 3.76215 0.625884 3.58196 0.384136C3.43618 0.188963 3.2225 0.0975864 3.01062 0H2.57012C2.5502 0.0452446 2.50221 0.0328245 2.4678 0.0456882C2.10744 0.180978 1.88153 0.431598 1.80637 0.802427C1.78374 0.914651 1.78464 1.03442 1.79415 1.1493C1.80547 1.28282 1.76834 1.33605 1.62121 1.32718C1.41296 1.31431 1.20334 1.32185 0.994637 1.32407C0.3821 1.33072 0.0036218 1.70111 0.00316908 2.30127C0.00226363 6.35155 0.00271635 10.4018 0.00316908 14.4526C0.00316908 14.5018 0.00226363 14.5532 0.0140345 14.6007C0.0443671 14.7271 0.124047 14.8056 0.262581 14.807C0.400662 14.8083 0.485774 14.7342 0.514296 14.606C0.529688 14.5368 0.52833 14.4632 0.52833 14.3918C0.528783 11.2601 0.530141 8.12806 0.525161 4.99598C0.525161 4.83053 0.557305 4.77641 0.741111 4.77641C3.99983 4.78307 7.25854 4.78129 10.5173 4.78129C10.5734 4.78129 10.6309 4.78661 10.6861 4.77863C10.8287 4.75867 10.9089 4.67439 10.9093 4.53245C10.9098 4.39095 10.8305 4.30622 10.6875 4.28582C10.6381 4.27828 10.5861 4.2836 10.5354 4.2836H3.77527C2.74759 4.2836 1.71945 4.28271 0.691764 4.28449C0.593975 4.28493 0.523803 4.29025 0.525614 4.15275C0.53331 3.51666 0.526972 2.88013 0.530594 2.2436C0.531952 1.98677 0.692217 1.83108 0.952534 1.8262C1.18976 1.8222 1.42699 1.83108 1.66376 1.82265C1.77378 1.81866 1.79641 1.85813 1.7937 1.95572C1.78691 2.16598 1.78872 2.37667 1.79234 2.58648C1.80049 3.08107 2.1921 3.48295 2.70594 3.52775C3.20348 3.57122 3.65892 3.23721 3.75807 2.7577C3.8133 2.48845 3.77799 2.21699 3.78342 1.94641C3.78569 1.85503 3.80832 1.8222 3.90702 1.82309C4.39822 1.82753 4.88943 1.82753 5.38064 1.82354C5.47571 1.82265 5.50921 1.85015 5.50785 1.94508C5.50514 2.18283 5.50061 2.42147 5.51736 2.65834C5.55222 3.14761 5.98593 3.52952 6.4957 3.53352C7.00954 3.53751 7.45095 3.15027 7.48536 2.65213C7.5012 2.41526 7.49622 2.17662 7.49486 1.93887C7.49396 1.85414 7.52112 1.82309 7.61076 1.82354C8.10785 1.82708 8.60449 1.82708 9.10159 1.82354C9.18941 1.82309 9.2202 1.84793 9.21794 1.93576C9.21296 2.14601 9.21205 2.35671 9.21794 2.56652C9.23333 3.10946 9.67474 3.5344 10.2176 3.53352C10.7721 3.53307 11.2068 3.10192 11.2108 2.54745C11.2122 2.34296 11.2131 2.13803 11.2099 1.93354C11.2086 1.86035 11.2231 1.8222 11.3104 1.82354C11.5703 1.82842 11.8302 1.81866 12.0896 1.82842C12.3137 1.83684 12.4685 1.9952 12.4703 2.21654C12.4757 2.86948 12.4717 3.52243 12.4753 4.17537C12.4757 4.2663 12.4404 4.28759 12.3558 4.28493C12.1865 4.28005 12.0167 4.2805 11.8474 4.28449C11.6939 4.28848 11.5861 4.39449 11.5866 4.53245C11.587 4.6704 11.6943 4.77553 11.8483 4.77996C12.0063 4.7844 12.1647 4.78795 12.3223 4.77907C12.4377 4.77198 12.4767 4.80347 12.4762 4.92324C12.4721 6.89315 12.4762 8.86307 12.4712 10.833C12.469 11.5489 12.1557 12.1238 11.5843 12.5607C11.2421 12.8229 10.8509 12.9737 10.3919 13.0012C10.4462 12.9045 10.491 12.8291 10.5322 12.7514C10.5766 12.6685 10.62 12.5847 10.6599 12.4995C10.7459 12.3141 10.7065 12.1668 10.5566 12.102C10.4118 12.0399 10.2809 12.102 10.194 12.2808C10.0876 12.5008 9.96765 12.7129 9.82549 12.9133C9.78203 12.975 9.73857 13.0114 9.65346 13.0225C9.26547 13.0726 9.00017 13.3308 8.93815 13.7105C8.92321 13.7996 8.88473 13.8586 8.80867 13.9096C7.92495 14.4991 6.94888 14.7262 5.8972 14.5683C3.67341 14.2339 2.1758 12.2356 2.49542 10.0567C2.80508 7.94886 4.78938 6.44425 6.95612 6.7033C8.52074 6.89049 9.61226 7.73018 10.2479 9.13453C10.5358 9.76973 10.596 10.444 10.5286 11.132C10.5114 11.3107 10.6064 11.4265 10.7608 11.4362C10.9061 11.4456 11.0184 11.3418 11.0397 11.1821C11.099 10.7283 11.0841 10.2754 10.9967 9.82784C10.5059 7.31366 8.02365 5.71856 5.47888 6.27791C3.11022 6.79823 1.5361 9.14695 2.00557 11.4589C2.62581 14.512 6.00585 16.041 8.7806 14.5249C8.81592 14.5053 8.84761 14.461 8.90782 14.4903C8.90193 14.7063 8.83991 14.9121 8.75751 15.1113C8.40529 15.9634 7.58315 16.5005 6.62337 16.5014C4.75995 16.5036 2.89608 16.5023 1.03221 16.5023C0.992826 16.5023 0.952986 16.5036 0.914052 16.4996C0.679993 16.4744 0.537837 16.3244 0.530141 16.0929C0.526519 15.982 0.532405 15.8711 0.527877 15.7607C0.520181 15.5775 0.426014 15.475 0.269371 15.4732C0.111823 15.471 0.0117709 15.573 0.00407453 15.7531C-0.00090545 15.8742 -0.00226363 15.9966 0.0054327 16.1182C0.0380289 16.6407 0.424656 16.9996 0.95525 16.9996C4.65447 17 8.35323 17 12.0524 16.9991C12.1253 16.9991 12.2005 16.9969 12.2707 16.9805C12.7365 16.8718 12.9995 16.5165 12.9995 15.9966C12.9995 11.4425 12.9995 6.88827 12.9995 2.33453C12.9995 2.30127 13.0005 2.268 12.9991 2.23473ZM3.26188 2.51596C3.25509 2.83089 3.06948 3.02474 2.78471 3.02429C2.50583 3.02429 2.30663 2.82025 2.30347 2.51507C2.29803 2.01205 2.29758 1.50904 2.30392 1.00603C2.30754 0.706615 2.52258 0.493699 2.79422 0.499909C3.06269 0.506119 3.25464 0.710163 3.26143 1.00736C3.26732 1.26153 3.26279 1.51569 3.26279 1.76986C3.26279 2.02403 3.26732 2.26755 3.26188 2.51596ZM6.9774 2.54612C6.97378 2.8238 6.77322 3.02341 6.5034 3.02429C6.23402 3.02518 6.02713 2.82513 6.02532 2.55055C6.02215 2.02536 6.0217 1.50017 6.02577 0.974977C6.02758 0.706171 6.24715 0.495473 6.50747 0.499909C6.76417 0.504788 6.97242 0.709276 6.97695 0.970541C6.98147 1.2358 6.97785 1.5015 6.97785 1.76676C6.97785 2.03202 6.98057 2.28663 6.9774 2.54612ZM10.6983 2.52926C10.6943 2.82513 10.4933 3.02296 10.2203 3.02429C9.94094 3.02607 9.75487 2.83622 9.73993 2.53503C9.73948 2.52394 9.73948 2.51329 9.73948 2.5022V1.75567C9.73948 1.50727 9.7354 1.25842 9.74083 1.00958C9.74717 0.707945 9.95226 0.495029 10.2225 0.499909C10.491 0.504788 10.6947 0.710163 10.6983 1.00381C10.7051 1.51215 10.7056 2.02048 10.6983 2.52926ZM9.30124 15.1357C9.43162 14.7529 9.45064 14.3572 9.4452 13.958C9.44022 13.6067 9.53575 13.51 9.89114 13.5171C10.3674 13.5273 10.8364 13.5029 11.2828 13.3139C11.5698 13.1928 11.8306 13.0327 12.0697 12.8304C11.9723 13.8604 9.87801 15.9203 8.73533 16.0978C8.99112 15.8046 9.18126 15.4892 9.30124 15.1357ZM12.4721 16.0747C12.4708 16.3267 12.3218 16.4961 12.0728 16.4983C11.1307 16.5054 10.1886 16.501 9.23876 16.4868C9.94003 16.1581 10.5748 15.7394 11.1253 15.2035C11.6785 14.665 12.114 14.0449 12.4735 13.3547V14.4814C12.4735 15.0123 12.4757 15.5437 12.4721 16.0747Z" fill="#787878"/>
<path id="Vector_2" d="M8.85746 9.57773C8.21459 10.1996 7.57806 10.8273 6.93927 11.4532C6.62417 11.7619 6.30636 12.0684 5.99534 12.3816C5.92109 12.4561 5.88125 12.4525 5.80881 12.3807C5.25287 11.8302 4.6942 11.2824 4.13147 10.7386C4.05133 10.6609 4.05315 10.6166 4.13328 10.5434C4.29852 10.3926 4.45426 10.232 4.61452 10.0763C4.64169 10.0497 4.67112 10.0253 4.70598 9.99424C4.744 10.0288 4.77751 10.0568 4.80874 10.0874C5.08853 10.3606 5.36741 10.6348 5.64719 10.9085C5.85228 11.1085 5.95504 11.1094 6.15696 10.912C6.83197 10.2511 7.50789 9.59192 8.17883 8.927C8.26892 8.83784 8.32234 8.82188 8.41425 8.92345C8.55233 9.07649 8.70173 9.22109 8.85701 9.35771C8.95208 9.44111 8.94846 9.4899 8.85746 9.57773Z" fill="#787878"/>
</g>
<defs>
<clipPath id="clip0_433_3488">
<rect width="13" height="17" fill="white"/>
</clipPath>
</defs>
</svg>
