<svg width="14" height="13" viewBox="0 0 14 13" fill="none" xmlns="http://www.w3.org/2000/svg">
<path id="Shape" fill-rule="evenodd" clip-rule="evenodd" d="M13.3508 0.907995C13.2464 0.813877 13.0897 0.784937 12.9527 0.834346L1.0895 5.10995C0.953767 5.15887 0.862874 5.27534 0.857656 5.407C0.852463 5.53864 0.933979 5.66064 1.06551 5.71812L5.74352 7.76238L8.01234 11.9774C8.07421 12.0924 8.20343 12.1649 8.34443 12.1649L8.35763 12.1647C8.5037 12.16 8.63301 12.0781 8.68728 11.9558L13.4325 1.26677C13.4874 1.1432 13.4553 1.00209 13.3508 0.907995ZM2.13956 5.44805L11.5569 2.05395L5.94455 7.11081L2.13956 5.44805ZM6.46665 7.58122L8.31206 11.0097L12.079 2.52436L6.46665 7.58122Z" fill="white"/>
</svg>
